HIERARCHY
ROOT joint_Root
{
	OFFSET 0.0 0.0 0.0
	CHANNELS 6 Xposition Yposition Zposition Zrotation Xrotation Yrotation 
	JOINT Hips
	{
		OFFSET -0.726466 93.3139 -2.00062
		CHANNELS 6 Xposition Yposition Zposition Zrotation Xrotation Yrotation 
		JOINT Spine
		{
			OFFSET 15.7357 0.0 0.0
			CHANNELS 6 Xposition Yposition Zposition Zrotation Xrotation Yrotation 
			JOINT Chest
			{
				OFFSET 8.98455 -0.406207 0.0
				CHANNELS 6 Xposition Yposition Zposition Zrotation Xrotation Yrotation 
				JOINT Neck
				{
					OFFSET 16.3773 0.0 0.0
					CHANNELS 6 Xposition Yposition Zposition Zrotation Xrotation Yrotation 
					JOINT Head
					{
						OFFSET 6.45672 0.0 0.0
						CHANNELS 6 Xposition Yposition Zposition Zrotation Xrotation Yrotation 
						End Site
						{
							OFFSET 0.0 0.0 0.0
						}
					}
				}
				JOINT Shoulder_L
				{
					OFFSET 12.9942 -0.242716 4.98039
					CHANNELS 6 Xposition Yposition Zposition Zrotation Xrotation Yrotation 
					JOINT UpperArm_L
					{
						OFFSET 5.34809 0.0 0.0
						CHANNELS 6 Xposition Yposition Zposition Zrotation Xrotation Yrotation 
						JOINT LowerArm_L
						{
							OFFSET 24.3286 1.87007e-05 0.0
							CHANNELS 6 Xposition Yposition Zposition Zrotation Xrotation Yrotation 
							JOINT Hand_L
							{
								OFFSET 22.2916 0.0 0.0
								CHANNELS 6 Xposition Yposition Zposition Zrotation Xrotation Yrotation 
								End Site
								{
									OFFSET 0.0 0.0 0.0
								}
							}
						}
					}
				}
				JOINT Shoulder_R
				{
					OFFSET 12.9945 -0.242716 -4.98039
					CHANNELS 6 Xposition Yposition Zposition Zrotation Xrotation Yrotation 
					JOINT UpperArm_R
					{
						OFFSET -5.34813 0.0 0.0
						CHANNELS 6 Xposition Yposition Zposition Zrotation Xrotation Yrotation 
						JOINT LowerArm_R
						{
							OFFSET -24.3289 0.000322201 0.0
							CHANNELS 6 Xposition Yposition Zposition Zrotation Xrotation Yrotation 
							JOINT Hand_R
							{
								OFFSET -22.2915 -0.000108084 0.0
								CHANNELS 6 Xposition Yposition Zposition Zrotation Xrotation Yrotation 
								End Site
								{
									OFFSET 0.0 0.0 0.0
								}
							}
						}
					}
				}
			}
		}
		JOINT UpperLeg_L
		{
			OFFSET -2.19248 -6.46944 0.0
			CHANNELS 6 Xposition Yposition Zposition Zrotation Xrotation Yrotation 
			JOINT LowerLeg_L
			{
				OFFSET 39.0811 0.0 -1.23785e-05
				CHANNELS 6 Xposition Yposition Zposition Zrotation Xrotation Yrotation 
				JOINT Foot_L
				{
					OFFSET 40.9854 0.0 -1.26872e-05
					CHANNELS 6 Xposition Yposition Zposition Zrotation Xrotation Yrotation 
					JOINT Toes_L
					{
						OFFSET 11.7543 0.0 0.0
						CHANNELS 6 Xposition Yposition Zposition Zrotation Xrotation Yrotation 
						End Site
						{
							OFFSET 0.0 0.0 0.0
						}
					}
				}
			}
		}
		JOINT UpperLeg_R
		{
			OFFSET -2.19251 6.46944 0.0
			CHANNELS 6 Xposition Yposition Zposition Zrotation Xrotation Yrotation 
			JOINT LowerLeg_R
			{
				OFFSET -39.0811 -0.00228153 -0.0401928
				CHANNELS 6 Xposition Yposition Zposition Zrotation Xrotation Yrotation 
				JOINT Foot_R
				{
					OFFSET -40.9854 0.0 0.0
					CHANNELS 6 Xposition Yposition Zposition Zrotation Xrotation Yrotation 
					JOINT Toes_R
					{
						OFFSET -11.7543 0.0 0.0
						CHANNELS 6 Xposition Yposition Zposition Zrotation Xrotation Yrotation 
						End Site
						{
							OFFSET 0.0 0.0 0.0
						}
					}
				}
			}
		}
	}
}
MOTION
Frames:	6
Frame Time:	0.0333333
0.000000 0.000000 0.000000 0.000000 0.000000 -0.000000 0.166787 92.019700 -1.798740 87.747600 -5.131200 5.390860 15.735700 0.000005 -0.000001 92.927700 85.572100 -93.959700 8.984550 -0.406207 -0.000000 1.083770 0.512299 -2.067140 16.377300 -0.000001 -0.000001 3.567990 -1.243780 2.773760 6.456720 -0.000001 -0.000000 -0.135563 -0.149244 -6.158710 12.994200 -0.242716 4.980390 -88.685400 -3.777730 -70.797100 5.348090 -0.000007 -0.000001 19.864300 75.043800 -69.056500 24.328600 0.000019 0.000005 7.444820 0.574444 -85.612700 22.291600 -0.000001 0.000005 42.035000 5.425600 -38.452300 12.994500 -0.242716 -4.980390 91.855300 -4.089750 -65.572400 -5.348130 -0.000001 -0.000004 -53.190000 -54.024100 -99.667900 -24.328900 0.000322 -0.000009 2.147120 1.670310 -52.152300 -22.291500 -0.000108 -0.000004 26.275300 5.510590 -6.966080 -2.192480 -6.469440 -0.000000 -168.698000 -19.886900 -1.030940 39.081100 -0.000007 -0.000012 -0.183260 0.427411 23.208300 40.985400 -0.000006 -0.000013 -6.594980 -3.373100 -64.138100 11.754300 -0.000000 0.000003 -0.000143 -0.001398 -16.630800 -2.192510 6.469440 -0.000001 173.811000 19.452800 179.067000 -39.081100 -0.002282 -0.040193 0.038490 -0.089914 21.363500 -40.985400 0.000008 0.000006 -1.094060 1.899060 -62.617800 -11.754300 -0.000006 -0.000006 -0.005930 -0.070198 -19.430000
0.000000 0.000000 0.000000 0.000000 0.000000 -0.000000 0.158217 92.020600 -1.799270 87.791000 -5.066400 5.367680 15.735700 0.000005 -0.000001 92.690700 85.565400 -93.720300 8.984550 -0.406207 -0.000000 1.098550 0.476056 -2.062070 16.377300 -0.000001 -0.000001 3.428310 -1.274080 2.778860 6.456720 -0.000001 -0.000000 -0.172590 -0.153700 -6.250220 12.994200 -0.242716 4.980390 -88.686800 -3.774620 -70.800700 5.348090 -0.000007 -0.000001 19.651000 75.084700 -68.850300 24.328600 0.000019 0.000005 7.414470 0.573490 -85.601900 22.291600 -0.000001 0.000005 41.972300 5.424360 -38.494200 12.994500 -0.242716 -4.980390 91.860100 -4.097670 -65.558800 -5.348130 -0.000001 -0.000004 -53.229700 -54.018600 -99.568300 -24.328900 0.000322 -0.000009 2.021930 1.559760 -52.384800 -22.291500 -0.000108 -0.000004 26.521500 5.512690 -7.052340 -2.192480 -6.469440 -0.000000 -168.756000 -19.831100 -1.052930 39.081100 -0.000007 -0.000012 -0.182787 0.427216 23.164200 40.985400 -0.000006 -0.000013 -6.596840 -3.366310 -64.111100 11.754300 -0.000000 0.000003 -0.000108 -0.001103 -16.619800 -2.192510 6.469440 -0.000001 173.775000 19.487700 179.047000 -39.081100 -0.002282 -0.040193 0.038911 -0.090912 21.380400 -40.985400 0.000008 0.000006 -1.080610 1.887660 -62.652400 -11.754300 -0.000006 -0.000006 -0.005933 -0.070222 -19.431000
0.000000 0.000000 0.000000 0.000000 0.000000 -0.000000 0.135147 92.017900 -1.786860 87.779400 -4.972010 5.373020 15.735700 0.000005 -0.000001 92.612200 85.554200 -93.619600 8.984550 -0.406207 -0.000000 1.121180 0.463470 -2.017640 16.377300 -0.000001 -0.000001 3.340050 -1.312990 2.758720 6.456720 -0.000001 -0.000000 -0.258998 -0.198887 -6.304660 12.994200 -0.242716 4.980390 -88.694700 -3.760430 -70.841800 5.348090 -0.000007 -0.000001 19.469100 75.119800 -68.663700 24.328600 0.000019 0.000005 7.373970 0.573819 -85.575000 22.291600 -0.000001 0.000005 41.876300 5.421230 -38.600200 12.994500 -0.242716 -4.980390 91.861500 -4.096210 -65.534800 -5.348130 -0.000001 -0.000004 -52.944800 -54.103000 -99.185800 -24.328900 0.000322 -0.000009 1.943850 1.486320 -52.628600 -22.291500 -0.000108 -0.000004 26.437800 5.512650 -7.051750 -2.192480 -6.469440 -0.000000 -168.739000 -19.770900 -1.073640 39.081100 -0.000007 -0.000012 -0.182578 0.426343 23.182900 40.985400 -0.000006 -0.000013 -6.602910 -3.339290 -64.111400 11.754300 -0.000000 0.000003 -0.000126 -0.001254 -16.625400 -2.192510 6.469440 -0.000001 173.792000 19.541200 179.067000 -39.081100 -0.002282 -0.040193 0.038607 -0.090086 21.391000 -40.985400 0.000008 0.000006 -1.073940 1.837230 -62.680300 -11.754300 -0.000006 -0.000006 -0.005803 -0.069039 -19.382700
0.000000 0.000000 0.000000 0.000000 0.000000 -0.000000 0.112821 92.018300 -1.772140 87.792900 -4.881910 5.349060 15.735700 0.000005 -0.000001 92.419900 85.558000 -93.418900 8.984550 -0.406207 -0.000000 1.114600 0.432912 -2.000600 16.377300 -0.000001 -0.000001 3.271300 -1.338840 2.757740 6.456720 -0.000001 -0.000000 -0.322351 -0.196287 -6.351550 12.994200 -0.242716 4.980390 -88.700600 -3.745020 -70.849500 5.348090 -0.000007 -0.000001 19.301400 75.157800 -68.470400 24.328600 0.000019 0.000005 7.438390 0.575946 -85.597400 22.291600 -0.000001 0.000005 41.888300 5.422780 -38.548200 12.994500 -0.242716 -4.980390 91.855700 -4.083070 -65.532400 -5.348130 -0.000001 -0.000004 -52.601700 -54.151000 -98.813100 -24.328900 0.000322 -0.000009 1.998590 1.523530 -52.713000 -22.291500 -0.000108 -0.000004 26.371600 5.512340 -7.038730 -2.192480 -6.469440 -0.000000 -168.744000 -19.761500 -1.081110 39.081100 -0.000007 -0.000012 -0.182155 0.426056 23.148700 40.985400 -0.000006 -0.000013 -6.603050 -3.262160 -64.094300 11.754300 -0.000000 0.000003 -0.000102 -0.001047 -16.617700 -2.192510 6.469440 -0.000001 173.779000 19.607600 179.071000 -39.081100 -0.002282 -0.040193 0.038216 -0.088995 21.411400 -40.985400 0.000008 0.000006 -1.160680 1.812080 -62.685100 -11.754300 -0.000006 -0.000006 -0.005992 -0.070765 -19.453100
0.000000 0.000000 0.000000 0.000000 0.000000 -0.000000 0.090713 92.010100 -1.743350 87.800400 -4.783780 5.338330 15.735700 0.000005 -0.000001 92.363800 85.561900 -93.349800 8.984550 -0.406207 -0.000000 1.107010 0.423220 -1.974400 16.377300 -0.000001 -0.000001 3.244560 -1.352940 2.740030 6.456720 -0.000001 -0.000000 -0.343686 -0.200111 -6.360310 12.994200 -0.242716 4.980390 -88.706000 -3.733020 -70.866200 5.348090 -0.000007 -0.000001 19.132800 75.200800 -68.286200 24.328600 0.000019 0.000005 7.378670 0.568515 -85.618600 22.291600 -0.000001 0.000005 41.763400 5.421540 -38.590500 12.994500 -0.242716 -4.980390 91.868100 -4.108050 -65.521000 -5.348130 -0.000001 -0.000004 -52.241000 -54.214000 -98.422200 -24.328900 0.000322 -0.000009 1.909350 1.457230 -52.680000 -22.291500 -0.000108 -0.000004 26.299000 5.513340 -7.080640 -2.192480 -6.469440 -0.000000 -168.736000 -19.745300 -1.112670 39.081100 -0.000007 -0.000012 -0.183226 0.427919 23.179800 40.985400 -0.000006 -0.000013 -6.603980 -3.173710 -64.104500 11.754300 -0.000000 0.000003 -0.000122 -0.001219 -16.624100 -2.192510 6.469440 -0.000001 173.777000 19.659300 179.088000 -39.081100 -0.002282 -0.040193 0.038592 -0.089865 21.430800 -40.985400 0.000008 0.000006 -1.135420 1.767100 -62.771000 -11.754300 -0.000006 -0.000006 -0.005909 -0.070004 -19.422100
0.000000 0.000000 0.000000 0.000000 0.000000 -0.000000 0.072281 92.013200 -1.716620 87.845800 -4.700330 5.342530 15.735700 0.000005 -0.000001 92.322200 85.559500 -93.308800 8.984550 -0.406207 -0.000000 1.112100 0.416959 -1.975630 16.377300 -0.000001 -0.000001 3.258130 -1.375920 2.743680 6.456720 -0.000001 -0.000000 -0.401108 -0.222021 -6.379090 12.994200 -0.242716 4.980390 -88.714400 -3.699980 -70.824000 5.348090 -0.000007 -0.000001 18.849700 75.196600 -67.988300 24.328600 0.000019 0.000005 7.324560 0.566754 -85.599600 22.291600 -0.000001 0.000005 41.706500 5.418050 -38.707200 12.994500 -0.242716 -4.980390 91.864600 -4.099620 -65.517000 -5.348130 -0.000001 -0.000004 -52.061000 -54.240600 -98.234600 -24.328900 0.000322 -0.000009 1.901310 1.455790 -52.590700 -22.291500 -0.000108 -0.000004 26.235200 5.514800 -7.141480 -2.192480 -6.469440 -0.000000 -168.775000 -19.688400 -1.083280 39.081100 -0.000007 -0.000012 -0.182537 0.427841 23.105600 40.985400 -0.000006 -0.000013 -6.613160 -3.160910 -64.066300 11.754300 -0.000000 0.000003 -0.000118 -0.001182 -16.622800 -2.192510 6.469440 -0.000001 173.732000 19.708800 179.111000 -39.081100 -0.002282 -0.040193 0.039037 -0.090865 21.459400 -40.985400 0.000008 0.000006 -1.087150 1.725670 -62.812200 -11.754300 -0.000006 -0.000006 -0.005738 -0.068435 -19.358100
